# xmcd
#
# Track frame offsets:
#	150
#	22596
#	41200
#	52382
#	71345
#	88413
#	106164
#	128247
#	153839
#	162762
#	184517
#	202491
#
# Disc length: 2928 seconds
#
# Revision: 0
# Processed by: cddbd v1.5.1PL0 Copyright (c) Steve Scherf et al.
# Submitted via: dBpowerAMP V4.0
#
DISCID=a30b6e0c
DTITLE=Cosmo Jones Beat Machine - No matter how you pray
DYEAR=1900
DGENRE=Blues
TTITLE0=Devil behind the woodpile
TTITLE1=Downbpound express
TTITLE2=Black Jesus
TTITLE3=Kenneth Neu on death row
TTITLE4=Umbanda boom o-mami wata woo
TTITLE5=I feel nothing
TTITLE6=Whats in use in getting sober
TTITLE7=Compassion
TTITLE8=Aerolopile babe
TTITLE9=The Flood
TTITLE10=I asked for gasoline
TTITLE11=Little red and carrill ann
EXTD=
EXTT0=
EXTT1=
EXTT2=
EXTT3=
EXTT4=
EXTT5=
EXTT6=
EXTT7=
EXTT8=
EXTT9=
EXTT10=
EXTT11=
PLAYORDER=
